<svg id="Сгруппировать_2" data-name="Сгруппировать 2" xmlns="http://www.w3.org/2000/svg" width="197.748" height="152.648" viewBox="0 0 197.748 152.648">
  <path id="Контур_1" data-name="Контур 1" d="M113.744,217.068h-6c-12.361,0-24.721-.034-37.082.034-1.846.01-2.791-.413-3.3-2.378-7.562-29.064-15.276-58.089-22.784-87.169-1.576-6.1-2.468-12.385-3.735-18.886C36.759,137,27.622,163.791,20.6,191.1c-2.049,7.96-4.262,15.879-6.557,23.771a3.433,3.433,0,0,1-2.366,2.1c-14.155.117-28.312.071-42.467.048a4.78,4.78,0,0,1-1.125-.372c2.22-6.846,4.408-13.645,6.63-20.435Q-4.726,133.414,15.786,70.6c.905-2.784,2.13-3.7,5.093-3.661,13.625.182,27.255.139,40.882.022,2.409-.02,3.484.71,4.236,3.027q23.284,71.724,46.715,143.4C113.062,214.469,113.327,215.573,113.744,217.068Z" transform="translate(84.003 -66.942)" fill="#fff"/>
  <path id="Контур_2" data-name="Контур 2" d="M-40.466,133.612c8.3-.022,15.811,2.035,19.253,10.418,5.29,12.886.1,28.461-18.064,28.984-6.706.192-13.177-.695-18.016-5.966-6.018-6.555-6.44-14.323-3.56-22.2,2.791-7.639,9.287-10.476,16.905-11.215C-42.8,133.516-41.627,133.612-40.466,133.612Z" transform="translate(62.581 -20.389)" fill="#fff"/>
</svg>
