<svg xmlns="http://www.w3.org/2000/svg" width="37" height="37" viewBox="0 0 37 37">
  <path id="Контур_3" data-name="Контур 3" d="M-65.844-169.43v30.64a.558.558,0,0,0-.061.124,3.72,3.72,0,0,1-3.755,3.055q-14.685,0-29.37,0a4.164,4.164,0,0,1-1-.115,3.719,3.719,0,0,1-2.813-3.729q0-14.649,0-29.3c0-.108,0-.217.006-.325a3.7,3.7,0,0,1,1.259-2.589,4.429,4.429,0,0,1,1.915-.937h30.64a.869.869,0,0,0,.159.066,3.761,3.761,0,0,1,2.178,1.311A4.6,4.6,0,0,1-65.844-169.43Zm-5.57,28.251c.006-.108.013-.179.013-.249,0-3.42.016-6.84-.005-10.26a6.262,6.262,0,0,0-2.831-5.326,5.6,5.6,0,0,0-6.621-.159,18.975,18.975,0,0,0-1.626,1.4v-2.006h-5.522v16.6h5.517v-.443q0-4.48,0-8.959c0-.24.007-.482.03-.722a2.787,2.787,0,0,1,3.474-2.306,2.825,2.825,0,0,1,2.035,2.864q.006,4.57,0,9.14v.433Zm-20.353,0v-16.6h-5.5v16.6Zm.568-23.1a3.333,3.333,0,0,0-3.324-3.335,3.352,3.352,0,0,0-3.327,3.342,3.33,3.33,0,0,0,3.315,3.308A3.311,3.311,0,0,0-91.2-164.28Z" transform="translate(102.844 172.61)" fill="#fff"/>
</svg>
